P3
30 30
255
247 247 247 247 247 247 247 247 247 247 247 247 247 247 247 247 247 247 247 247 247 247 247 247 247 247 247 247 247 247 247 247 247 247 247 247 247 247 247 247 247 247 247 247 247 247 247 247 247 247 247 247 247 247 247 247 247 247 247 247 247 247 247 247 247 247 247 247 247 247 247 247 247 247 247 247 247 247 247 247 247 247 247 247 247 247 247 247 247 247 
247 247 247 247 247 247 247 247 247 247 247 247 247 247 247 247 247 247 247 247 247 247 247 247 247 247 247 247 247 247 247 247 247 247 247 247 247 247 247 247 247 247 247 247 247 247 247 247 247 247 247 247 247 247 247 247 247 247 247 247 247 247 247 247 247 247 247 247 247 247 247 247 247 247 247 247 247 247 247 247 247 247 247 247 247 247 247 247 247 247 
247 247 247 247 247 247 247 247 247 247 247 247 247 247 247 247 247 247 247 247 247 247 247 247 247 247 247 247 247 247 247 247 247 247 247 247 247 247 247 247 247 247 0 25 255 0 73 255 247 247 247 247 247 247 247 247 247 247 247 247 247 247 247 247 247 247 247 247 247 247 247 247 247 247 247 247 247 247 247 247 247 247 247 247 247 247 247 247 247 247 
247 247 247 247 247 247 247 247 247 247 247 247 247 247 247 247 247 247 247 247 247 247 247 247 247 247 247 247 247 247 247 247 247 247 247 247 247 247 247 247 247 247 0 33 255 0 82 255 247 247 247 247 247 247 247 247 247 247 247 247 247 247 247 247 247 247 247 247 247 247 247 247 247 247 247 247 247 247 247 247 247 247 247 247 247 247 247 247 247 247 
247 247 247 247 247 247 247 247 247 247 247 247 247 247 247 247 247 247 247 247 247 247 247 247 247 247 247 247 247 247 247 247 247 247 247 247 247 247 247 0 9 255 0 46 255 0 96 255 0 152 255 247 247 247 247 247 247 247 247 247 247 247 247 247 247 247 247 247 247 247 247 247 247 247 247 247 247 247 247 247 247 247 247 247 247 247 247 247 247 247 
247 247 247 247 247 247 247 247 247 247 247 247 247 247 247 247 247 247 247 247 247 247 247 247 247 247 247 247 247 247 247 247 247 247 247 247 247 247 247 0 22 255 0 64 255 0 116 255 0 170 255 247 247 247 247 247 247 247 247 247 247 247 247 247 247 247 247 247 247 247 247 247 247 247 247 247 247 247 247 247 247 247 247 247 247 247 247 247 247 247 
247 247 247 247 247 247 247 247 247 247 247 247 247 247 247 247 247 247 247 247 247 247 247 247 247 247 247 247 247 247 247 247 247 247 247 247 0 8 255 0 41 255 0 86 255 0 138 255 0 190 255 0 232 255 247 247 247 247 247 247 247 247 247 247 247 247 247 247 247 247 247 247 247 247 247 247 247 247 247 247 247 247 247 247 247 247 247 247 247 247 
247 247 247 247 247 247 247 247 247 247 247 247 247 247 247 247 247 247 247 247 247 247 247 247 247 247 247 247 247 247 247 247 247 247 247 247 0 28 255 0 67 255 0 114 255 0 165 255 0 211 255 0 246 255 247 247 247 247 247 247 247 247 247 247 247 247 247 247 247 247 247 247 247 247 247 247 247 247 247 247 247 247 247 247 247 247 247 247 247 247 
247 247 247 247 247 247 247 247 247 247 247 247 247 247 247 247 247 247 247 247 247 247 247 247 247 247 247 247 247 247 247 247 247 0 23 255 0 56 255 0 99 255 0 147 255 0 193 255 0 232 255 0 255 251 0 255 223 247 247 247 247 247 247 247 247 247 247 247 247 247 247 247 247 247 247 247 247 247 247 247 247 247 247 247 247 247 247 247 247 247 
247 247 247 247 247 247 247 247 247 247 247 247 247 247 247 247 247 247 247 247 247 247 247 247 247 247 247 247 247 247 247 247 247 0 54 255 0 93 255 0 136 255 0 180 255 0 221 255 0 250 255 0 255 237 0 255 204 247 247 247 247 247 247 247 247 247 247 247 247 247 247 247 247 247 247 247 247 247 247 247 247 247 247 247 247 247 247 247 247 247 
247 247 247 247 247 247 247 247 247 247 247 247 247 247 247 247 247 247 247 247 247 250 250 247 0 11 255 0 32 255 0 59 255 0 94 255 0 134 255 0 175 255 0 213 255 0 244 255 0 255 245 0 255 216 0 255 179 0 255 137 0 255 93 0 255 51 249 247 250 247 247 247 247 247 247 247 247 247 247 247 247 247 247 247 247 247 247 247 247 247 
247 247 247 247 247 247 253 252 249 4 0 255 1 0 255 0 5 255 0 14 255 0 28 255 0 48 255 0 74 255 0 105 255 0 141 255 0 177 255 0 212 255 0 241 255 0 255 248 0 255 224 0 255 190 0 255 151 0 255 108 0 255 67 0 255 30 0 255 4 21 255 0 58 255 0 105 255 0 153 255 0 248 247 253 247 247 247 247 247 247 
247 247 247 247 247 247 0 27 255 0 28 255 0 34 255 0 43 255 0 56 255 0 75 255 0 97 255 0 124 255 0 154 255 0 186 255 0 217 255 0 242 255 0 255 249 0 255 227 0 255 196 0 255 160 0 255 119 0 255 79 0 255 42 0 255 12 9 255 0 42 255 0 83 255 0 130 255 0 177 255 0 219 255 0 247 247 247 247 247 247 
247 247 247 247 247 247 247 247 247 0 79 255 0 85 255 0 96 255 0 111 255 0 129 255 0 151 255 0 176 255 0 202 255 0 227 255 0 248 255 0 255 247 0 255 225 0 255 197 0 255 163 0 255 125 0 255 87 0 255 50 0 255 20 3 255 0 29 255 0 66 255 0 110 255 0 157 255 0 201 255 0 247 247 247 247 247 247 247 247 247 
247 247 247 247 247 247 247 247 247 247 247 247 0 145 255 0 154 255 0 168 255 0 185 255 0 203 255 0 222 255 0 240 255 0 255 254 0 255 240 0 255 219 0 255 192 0 255 161 0 255 126 0 255 89 0 255 55 0 255 25 0 255 2 21 255 0 54 255 0 96 255 0 140 255 0 185 255 0 247 247 247 247 247 247 247 247 247 247 247 247 
247 247 247 247 247 247 247 247 247 247 247 247 253 248 250 0 209 255 0 219 255 0 231 255 0 243 255 0 254 255 0 255 245 0 255 229 0 255 209 0 255 183 0 255 153 0 255 121 0 255 87 0 255 55 0 255 26 0 255 3 16 255 0 47 255 0 85 255 0 128 255 0 172 255 0 248 250 255 247 247 247 247 247 247 247 247 247 247 247 247 
247 247 247 247 247 247 247 247 247 247 247 247 247 247 247 15 247 234 0 255 255 0 255 249 0 255 240 0 255 228 0 255 212 0 255 191 0 255 167 0 255 140 0 255 110 0 255 80 0 255 50 0 255 24 0 255 3 15 255 0 43 255 0 79 255 0 120 255 0 162 255 0 206 232 0 247 247 247 247 247 247 247 247 247 247 247 247 247 247 247 
247 247 247 247 247 247 247 247 247 247 247 247 247 247 247 247 247 247 0 255 226 0 255 216 0 255 204 0 255 188 0 255 168 0 255 146 0 255 122 0 255 95 0 255 69 0 255 42 0 255 19 0 255 2 17 255 0 43 255 0 77 255 0 115 255 0 156 255 0 195 255 0 247 247 247 247 247 247 247 247 247 247 247 247 247 247 247 247 247 247 
247 247 247 247 247 247 247 247 247 247 247 247 247 247 247 247 247 247 247 247 247 0 255 171 0 255 156 0 255 140 0 255 120 0 255 99 0 255 76 0 255 53 0 255 32 0 255 12 2 255 0 21 255 0 47 255 0 80 255 0 116 255 0 154 255 0 191 255 0 247 247 247 247 247 247 247 247 247 247 247 247 247 247 247 247 247 247 247 247 247 
247 247 247 247 247 247 247 247 247 247 247 247 247 247 247 247 247 247 247 247 247 247 247 247 0 255 105 0 255 90 0 255 72 0 255 54 0 255 35 0 255 18 0 255 4 9 255 0 29 255 0 55 255 0 87 255 0 121 255 0 157 255 0 192 255 0 247 247 247 247 247 247 247 247 247 247 247 247 247 247 247 247 247 247 247 247 247 247 247 247 
247 247 247 247 247 247 247 247 247 247 247 247 247 247 247 247 247 247 247 247 247 0 255 63 0 255 58 0 255 44 0 255 30 0 255 18 0 255 5 6 255 0 21 255 0 42 255 0 68 255 0 98 255 0 130 255 0 164 255 0 196 255 0 226 255 0 250 217 0 247 247 247 247 247 247 247 247 247 247 247 247 247 247 247 247 247 247 247 247 247 
247 247 247 247 247 247 247 247 247 247 247 247 247 247 247 247 247 247 247 247 247 0 255 26 0 255 18 0 255 9 0 255 1 8 255 0 21 255 0 38 255 0 60 255 0 84 255 0 113 255 0 143 255 0 174 255 0 205 255 0 231 255 0 252 255 0 255 240 0 247 247 247 247 247 247 247 247 247 247 247 247 247 247 247 247 247 247 247 247 247 
247 247 247 247 247 247 247 247 247 247 247 247 247 247 247 247 247 247 247 247 247 3 255 0 9 255 0 18 255 0 29 255 0 44 255 0 62 255 0 83 255 0 106 255 0 133 255 0 161 255 0 189 255 0 215 255 0 238 255 0 255 255 0 255 236 0 255 208 0 247 247 247 247 247 247 247 247 247 247 247 247 247 247 247 247 247 247 247 247 247 
247 247 247 247 247 247 247 247 247 247 247 247 247 247 247 247 247 247 247 247 247 37 255 0 46 255 0 59 255 0 73 255 0 91 255 0 112 255 0 133 255 0 156 255 0 181 255 0 205 255 0 227 255 0 246 255 0 255 249 0 255 228 0 255 200 0 255 167 0 247 247 247 247 247 247 247 247 247 247 247 247 247 247 247 247 247 247 247 247 247 
247 247 247 247 247 247 247 247 247 247 247 247 247 247 247 247 247 247 247 247 247 85 255 0 97 255 0 110 255 0 126 255 0 144 255 0 164 255 0 184 255 0 204 255 0 224 255 0 241 255 0 255 255 0 255 240 0 255 217 0 255 189 0 255 156 0 255 120 0 247 247 247 247 247 247 247 247 247 247 247 247 247 247 247 247 247 247 247 247 247 
247 247 247 247 247 247 247 247 247 247 247 247 247 247 247 247 247 247 247 247 247 141 255 0 152 255 0 165 255 0 180 255 0 195 255 0 211 255 0 247 247 247 247 247 247 247 247 247 247 247 247 255 226 0 255 202 0 255 174 0 255 142 0 255 108 0 255 75 0 247 247 247 247 247 247 247 247 247 247 247 247 247 247 247 247 247 247 247 247 247 
247 247 247 247 247 247 247 247 247 247 247 247 247 247 247 247 247 247 247 247 247 193 255 0 203 255 0 214 255 0 225 255 0 247 247 247 247 247 247 247 247 247 247 247 247 247 247 247 247 247 247 247 247 247 247 247 247 255 124 0 255 92 0 255 62 0 255 34 0 247 247 247 247 247 247 247 247 247 247 247 247 247 247 247 247 247 247 247 247 247 
247 247 247 247 247 247 247 247 247 247 247 247 247 247 247 247 247 247 247 247 247 237 255 0 243 255 0 247 247 247 247 247 247 247 247 247 247 247 247 247 247 247 247 247 247 247 247 247 247 247 247 247 247 247 247 247 247 247 247 247 247 247 247 255 23 0 255 4 0 247 247 247 247 247 247 247 247 247 247 247 247 247 247 247 247 247 247 247 247 247 
247 247 247 247 247 247 247 247 247 247 247 247 247 247 247 247 247 247 251 204 126 247 247 247 247 247 247 247 247 247 247 247 247 247 247 247 247 247 247 247 247 247 247 247 247 247 247 247 247 247 247 247 247 247 247 247 247 247 247 247 247 247 247 247 247 247 247 247 247 251 141 130 247 247 247 247 247 247 247 247 247 247 247 247 247 247 247 247 247 247 
247 247 247 247 247 247 247 247 247 247 247 247 247 247 247 247 247 247 247 247 247 247 247 247 247 247 247 247 247 247 247 247 247 247 247 247 247 247 247 247 247 247 247 247 247 247 247 247 247 247 247 247 247 247 247 247 247 247 247 247 247 247 247 247 247 247 247 247 247 247 247 247 247 247 247 247 247 247 247 247 247 247 247 247 247 247 247 247 247 247 
