P3
30 30
255
0 0 0 0 0 0 0 0 0 0 0 0 0 0 0 0 0 0 0 0 0 0 0 0 0 0 0 0 0 0 0 0 0 0 0 0 0 0 0 0 0 0 0 0 0 0 0 0 0 0 0 0 0 0 0 0 0 0 0 0 0 0 0 0 0 0 0 0 0 0 0 0 0 0 0 0 0 0 0 0 0 0 0 0 0 0 0 0 0 0
0 0 0 0 0 0 0 0 0 0 0 0 0 0 0 0 0 0 0 0 0 0 0 0 0 0 0 0 0 0 0 0 0 0 0 0 0 0 0 0 0 0 0 0 0 0 0 0 0 0 0 0 0 0 0 0 0 0 0 0 0 0 0 0 0 0 0 0 0 0 0 0 0 0 0 0 0 0 0 0 0 0 0 0 0 0 0 0 0 0
0 0 0 0 0 0 247 247 247 247 247 247 247 247 247 247 247 247 247 247 247 247 247 247 247 247 247 247 247 247 247 247 247 247 247 246 255 255 246 255 255 245 0 0 255 0 0 255 255 255 245 255 255 246 247 247 246 247 247 247 247 247 247 247 247 247 247 247 247 247 247 247 247 247 247 247 247 247 247 247 247 247 247 247 0 0 0 0 0 0
0 0 0 0 0 0 247 247 247 247 247 247 247 247 247 247 247 247 247 247 247 247 247 247 247 247 247 247 247 247 247 247 247 251 251 246 255 255 245 255 255 243 0 0 255 0 34 255 255 255 243 255 255 245 251 248 246 247 247 247 247 247 247 247 247 247 247 247 247 247 247 247 247 247 247 247 247 247 247 247 247 247 247 247 0 0 0 0 0 0
0 0 0 0 0 0 247 247 247 247 247 247 247 247 247 247 247 247 247 247 247 247 247 247 247 247 247 247 247 247 247 247 246 255 255 246 255 255 244 0 0 255 0 0 255 0 74 255 0 128 255 255 255 244 255 250 246 247 247 246 247 247 247 247 247 247 247 247 247 247 247 247 247 247 247 247 247 247 247 247 247 247 247 247 0 0 0 0 0 0
0 0 0 0 0 0 247 247 247 247 247 247 247 247 247 247 247 247 247 247 247 247 247 247 247 247 247 247 247 247 251 251 246 255 255 245 255 255 243 0 0 255 0 41 255 0 109 255 0 163 255 255 255 243 255 252 245 251 247 246 247 247 247 247 247 247 247 247 247 247 247 247 247 247 247 247 247 247 247 247 247 247 247 247 0 0 0 0 0 0
0 0 0 0 0 0 247 247 247 247 247 247 247 247 247 247 247 247 247 247 247 247 247 247 247 247 247 247 247 246 255 255 246 255 255 244 0 0 255 0 0 255 0 75 255 0 135 255 0 192 255 0 239 255 255 251 245 255 247 247 247 246 247 247 247 247 247 247 247 247 247 247 247 247 247 247 247 247 247 247 247 247 247 247 0 0 0 0 0 0
0 0 0 0 0 0 247 247 247 247 247 247 247 247 247 247 247 247 247 247 247 247 247 247 247 247 247 251 251 246 255 255 245 255 255 243 0 0 255 0 45 255 0 109 255 0 166 255 0 217 255 0 255 255 255 248 248 255 246 248 251 246 247 247 247 247 247 247 247 247 247 247 247 247 247 247 247 247 247 247 247 247 247 247 0 0 0 0 0 0
0 0 0 0 0 0 247 247 247 247 247 247 247 247 247 246 246 247 247 247 246 251 251 246 255 255 246 255 255 246 255 255 244 0 0 255 0 13 255 0 89 255 0 147 255 0 197 255 0 241 255 0 255 255 0 255 209 255 245 255 255 246 255 255 246 254 251 246 250 247 246 247 246 247 246 247 247 247 247 247 247 247 247 247 0 0 0 0 0 0
0 0 0 0 0 0 251 251 246 255 255 246 255 255 246 255 255 246 255 255 246 255 255 245 255 255 245 255 255 244 255 255 242 0 0 255 0 74 255 0 133 255 0 182 255 0 229 255 0 255 255 0 255 244 0 255 193 255 242 255 255 244 255 255 245 255 255 245 255 255 246 255 255 246 255 255 246 255 252 246 255 249 246 251 0 0 0 0 0 0
0 0 0 0 0 0 255 255 245 255 255 245 255 255 244 255 255 244 255 255 244 255 255 243 0 0 255 0 0 255 0 0 255 0 66 255 0 128 255 0 177 255 0 219 255 0 255 255 0 255 255 0 255 221 0 255 174 0 255 116 0 255 48 0 255 0 255 243 255 255 244 255 255 244 255 255 244 255 255 245 255 255 246 255 0 0 0 0 0 0
0 0 0 0 0 0 255 255 248 0 0 255 0 0 255 0 0 255 0 0 255 0 0 255 0 3 255 0 49 255 0 91 255 0 136 255 0 178 255 0 219 255 0 252 255 0 255 255 0 255 232 0 255 194 0 255 152 0 255 102 0 255 52 0 255 0 0 255 0 0 255 0 0 255 0 49 255 0 111 255 0 255 244 255 0 0 0 0 0 0
0 0 0 0 0 0 0 0 255 0 0 255 0 0 255 0 17 255 0 32 255 0 58 255 0 87 255 0 120 255 0 153 255 0 189 255 0 224 255 0 253 255 0 255 255 0 255 236 0 255 201 0 255 163 0 255 119 0 255 76 0 255 35 0 255 0 0 255 0 21 255 0 66 255 0 117 255 0 168 255 0 216 255 0 0 0 0 0 0 0
0 0 0 0 0 0 255 255 244 0 22 255 0 63 255 0 88 255 0 107 255 0 126 255 0 150 255 0 178 255 0 207 255 0 236 255 0 255 255 0 255 255 0 255 233 0 255 203 0 255 166 0 255 125 0 255 85 0 255 45 0 255 11 0 255 0 19 255 0 59 255 0 106 255 0 155 255 0 202 255 0 255 244 255 0 0 0 0 0 0
0 0 0 0 0 0 255 255 245 255 255 243 0 121 255 0 147 255 0 169 255 0 189 255 0 208 255 0 230 255 0 251 255 0 255 255 0 255 250 0 255 227 0 255 197 0 255 164 0 255 127 0 255 87 0 255 51 0 255 17 0 255 0 10 255 0 46 255 0 92 255 0 136 255 0 182 255 0 255 243 255 254 245 255 0 0 0 0 0 0
0 0 0 0 0 0 255 251 246 255 255 245 255 255 250 0 208 255 0 226 255 0 241 255 0 255 255 0 255 255 0 255 255 0 255 238 0 255 216 0 255 188 0 255 155 0 255 122 0 255 85 0 255 51 0 255 18 0 255 0 4 255 0 39 255 0 80 255 0 125 255 0 169 255 0 255 250 255 255 245 255 249 246 255 0 0 0 0 0 0
0 0 0 0 0 0 247 247 246 255 249 246 255 253 247 0 255 222 0 255 255 0 255 255 0 255 250 0 255 237 0 255 219 0 255 196 0 255 170 0 255 142 0 255 109 0 255 77 0 255 44 0 255 15 0 255 0 3 255 0 34 255 0 74 255 0 117 255 0 160 255 0 210 215 0 255 246 255 250 246 255 247 246 247 0 0 0 0 0 0
0 0 0 0 0 0 246 246 246 251 247 247 255 247 247 255 246 251 0 255 218 0 255 213 0 255 207 0 255 193 0 255 171 0 255 148 0 255 123 0 255 93 0 255 66 0 255 35 0 255 9 0 255 0 6 255 0 34 255 0 71 255 0 111 255 0 154 255 0 195 255 0 255 246 255 253 247 255 247 247 251 246 246 246 0 0 0 0 0 0
0 0 0 0 0 0 247 247 247 247 247 247 255 246 247 255 246 251 255 244 255 0 255 144 0 255 146 0 255 140 0 255 120 0 255 98 0 255 73 0 255 48 0 255 25 0 255 1 0 255 0 10 255 0 39 255 0 75 255 0 113 255 0 152 255 0 190 255 0 255 244 255 255 246 255 248 247 255 247 247 247 247 247 247 0 0 0 0 0 0
0 0 0 0 0 0 247 247 247 247 247 247 247 246 247 255 246 252 255 245 255 255 242 255 0 255 85 0 255 85 0 255 68 0 255 49 0 255 27 0 255 8 0 255 0 0 255 0 18 255 0 47 255 0 83 255 0 119 255 0 157 255 0 193 255 0 255 246 255 255 247 255 248 247 255 247 246 247 247 247 247 247 247 247 0 0 0 0 0 0
0 0 0 0 0 0 247 247 247 247 247 247 247 247 247 255 246 255 255 245 255 0 255 0 0 255 36 0 255 36 0 255 22 0 255 9 0 255 0 0 255 0 9 255 0 33 255 0 62 255 0 95 255 0 128 255 0 165 255 0 199 255 0 233 255 0 255 190 0 248 250 255 246 247 255 247 247 247 247 247 247 247 247 247 0 0 0 0 0 0
0 0 0 0 0 0 247 247 247 247 247 247 247 247 247 255 246 255 255 244 255 0 255 0 0 255 0 0 255 0 0 255 0 0 255 0 9 255 0 28 255 0 53 255 0 79 255 0 110 255 0 142 255 0 176 255 0 211 255 0 240 255 0 255 255 0 255 241 0 245 253 255 246 248 255 247 247 247 247 247 247 247 247 247 0 0 0 0 0 0
0 0 0 0 0 0 247 247 247 247 247 247 247 247 247 255 246 255 255 244 255 0 255 0 0 255 0 6 255 0 18 255 0 36 255 0 55 255 0 78 255 0 102 255 0 132 255 0 162 255 0 193 255 0 222 255 0 248 255 0 255 255 0 255 244 0 255 191 0 244 255 255 246 249 255 247 247 247 247 247 247 247 247 247 0 0 0 0 0 0
0 0 0 0 0 0 247 247 247 247 247 247 247 247 247 255 246 255 255 244 255 0 255 0 24 255 0 52 255 0 67 255 0 86 255 0 110 255 0 131 255 0 156 255 0 184 255 0 210 255 0 235 255 0 255 255 0 255 255 0 255 238 0 255 199 0 255 132 0 244 255 255 246 252 255 247 247 247 247 247 247 247 247 247 0 0 0 0 0 0
0 0 0 0 0 0 247 247 247 247 247 247 247 247 247 255 246 255 255 244 255 27 255 0 83 255 0 107 255 0 124 255 0 143 255 0 164 255 0 186 255 0 209 255 0 233 255 0 253 255 0 255 255 0 255 249 0 255 224 0 255 195 0 255 149 0 255 67 0 244 255 255 246 254 255 247 247 247 247 247 247 247 247 247 0 0 0 0 0 0
0 0 0 0 0 0 247 247 247 247 247 247 247 247 247 253 246 255 255 244 255 104 255 0 145 255 0 167 255 0 183 255 0 198 255 0 215 255 0 255 243 255 255 244 255 255 244 255 250 247 255 255 214 0 255 187 0 255 162 0 255 134 0 255 90 0 255 7 0 244 255 255 246 255 255 247 247 247 247 247 247 247 247 247 0 0 0 0 0 0
0 0 0 0 0 0 247 247 247 247 247 247 246 247 247 250 247 255 255 245 255 176 255 0 205 255 0 222 255 0 234 255 0 255 243 255 255 244 255 254 245 255 250 246 255 248 246 255 246 248 255 245 255 255 243 255 255 255 61 0 255 40 0 255 13 0 255 0 0 244 255 255 246 255 255 246 247 247 247 247 247 247 247 247 0 0 0 0 0 0
0 0 0 0 0 0 247 247 247 247 247 247 246 247 248 248 249 255 253 249 255 241 255 0 255 255 0 255 243 255 255 244 255 252 245 255 249 246 255 247 246 251 247 246 247 246 247 247 246 247 251 246 250 255 245 255 255 244 255 255 243 255 255 255 0 0 255 0 0 244 255 255 246 255 255 246 248 248 247 247 247 247 247 247 0 0 0 0 0 0
0 0 0 0 0 0 0 0 0 0 0 0 0 0 0 0 0 0 0 0 0 0 0 0 0 0 0 0 0 0 0 0 0 0 0 0 0 0 0 0 0 0 0 0 0 0 0 0 0 0 0 0 0 0 0 0 0 0 0 0 0 0 0 0 0 0 0 0 0 0 0 0 0 0 0 0 0 0 0 0 0 0 0 0 0 0 0 0 0 0
0 0 0 0 0 0 0 0 0 0 0 0 0 0 0 0 0 0 0 0 0 0 0 0 0 0 0 0 0 0 0 0 0 0 0 0 0 0 0 0 0 0 0 0 0 0 0 0 0 0 0 0 0 0 0 0 0 0 0 0 0 0 0 0 0 0 0 0 0 0 0 0 0 0 0 0 0 0 0 0 0 0 0 0 0 0 0 0 0 0
