P3
30 30
255
0 0 0 0 0 0 0 0 0 0 0 0 0 0 0 0 0 0 0 0 0 0 0 0 0 0 0 0 0 0 0 0 0 0 0 0 0 0 0 0 0 0 0 0 0 0 0 0 0 0 0 0 0 0 0 0 0 0 0 0 0 0 0 0 0 0 0 0 0 0 0 0 0 0 0 0 0 0 0 0 0 0 0 0 0 0 0 0 0 0
0 0 0 0 0 0 0 0 0 0 0 0 0 0 0 0 0 0 0 0 0 0 0 0 0 0 0 0 0 0 0 0 0 0 0 0 0 0 0 247 222 0 255 255 0 255 255 0 247 174 0 0 0 0 0 0 0 0 0 0 0 0 0 0 0 0 0 0 0 0 0 0 0 0 0 0 0 0 0 0 0 0 0 0 0 0 0 0 0 0
0 0 0 0 0 0 0 0 0 0 0 0 0 0 0 0 0 0 0 0 0 0 0 0 0 0 0 0 0 0 0 0 0 0 0 0 0 0 0 255 255 0 0 0 40 0 0 40 255 255 0 0 0 0 0 0 0 0 0 0 0 0 0 0 0 0 0 0 0 0 0 0 0 0 0 0 0 0 0 0 0 0 0 0 0 0 0 0 0 0
0 0 0 0 0 0 0 0 0 0 0 0 0 0 0 0 0 0 0 0 0 0 0 0 0 0 0 0 0 0 0 0 0 0 0 0 247 238 0 255 255 0 0 0 16 0 0 16 255 255 0 247 95 0 0 0 0 0 0 0 0 0 0 0 0 0 0 0 0 0 0 0 0 0 0 0 0 0 0 0 0 0 0 0 0 0 0 0 0 0
0 0 0 0 0 0 0 0 0 0 0 0 0 0 0 0 0 0 0 0 0 0 0 0 0 0 0 0 0 0 0 0 0 0 0 0 255 255 0 0 0 32 0 0 8 0 0 8 0 0 32 255 172 0 0 0 0 0 0 0 0 0 0 0 0 0 0 0 0 0 0 0 0 0 0 0 0 0 0 0 0 0 0 0 0 0 0 0 0 0
0 0 0 0 0 0 0 0 0 0 0 0 0 0 0 0 0 0 0 0 0 0 0 0 0 0 0 0 0 0 0 0 0 247 239 0 255 255 0 0 0 16 0 0 0 0 0 0 0 0 16 255 244 0 247 15 0 0 0 0 0 0 0 0 0 0 0 0 0 0 0 0 0 0 0 0 0 0 0 0 0 0 0 0 0 0 0 0 0 0
0 0 0 0 0 0 0 0 0 0 0 0 0 0 0 0 0 0 0 0 0 0 0 0 0 0 0 0 0 0 0 0 0 255 255 0 0 0 32 0 0 8 0 0 0 0 0 0 0 0 8 0 51 32 255 16 0 0 0 0 0 0 0 0 0 0 0 0 0 0 0 0 0 0 0 0 0 0 0 0 0 0 0 0 0 0 0 0 0 0
0 0 0 0 0 0 0 0 0 0 0 0 0 0 0 0 0 0 0 0 0 0 0 0 0 0 0 0 0 0 247 224 0 255 255 0 0 0 16 0 0 0 0 0 0 0 9 0 0 37 4 0 99 52 255 0 4 247 0 24 0 0 0 0 0 0 0 0 0 0 0 0 0 0 0 0 0 0 0 0 0 0 0 0 0 0 0 0 0 0
0 0 0 0 0 0 0 0 0 0 0 0 0 0 0 0 0 0 0 0 0 0 0 0 0 0 0 0 0 0 255 255 0 0 0 32 0 0 8 0 0 0 0 1 0 0 24 0 0 60 22 0 89 77 0 41 0 255 0 67 0 0 0 0 0 0 0 0 0 0 0 0 0 0 0 0 0 0 0 0 0 0 0 0 0 0 0 0 0 0
0 0 0 0 0 0 0 0 0 0 0 0 0 0 0 0 0 0 0 0 0 244 233 0 255 255 0 255 255 0 255 255 0 0 0 16 0 0 0 0 0 0 0 12 0 0 54 10 0 90 71 0 28 68 0 16 0 255 0 255 255 0 255 255 0 255 245 0 193 0 0 0 0 0 0 0 0 0 0 0 0 0 0 0 0 0 0 0 0 0
0 0 0 0 0 0 237 242 0 255 255 0 255 255 0 255 255 0 255 255 0 255 255 0 0 0 32 0 0 24 0 0 16 0 0 8 0 0 0 0 14 0 0 40 7 0 82 48 0 50 80 0 5 43 0 8 0 0 16 0 0 24 0 0 32 0 255 0 255 255 0 255 255 0 255 255 0 255 235 0 255 93 0 241 0 0 0 0 0 0
0 0 0 241 215 0 255 255 0 0 0 30 0 0 24 0 0 24 0 0 24 0 0 16 0 0 8 0 0 0 0 0 0 0 2 0 0 15 0 0 42 6 0 77 41 0 67 78 0 11 55 0 0 30 0 0 20 0 0 0 0 0 0 0 8 0 0 16 0 0 24 0 0 24 0 0 24 0 0 32 0 200 0 255 27 0 241 0 0 0
0 0 0 241 215 0 0 0 38 0 0 14 0 0 0 0 0 0 0 0 0 0 0 0 0 0 0 0 0 0 0 0 0 0 17 0 0 48 8 0 76 44 0 70 83 0 14 59 0 0 34 0 0 25 0 0 2 0 0 0 0 0 0 0 0 0 0 0 0 0 0 0 0 0 0 0 0 0 0 16 0 0 40 0 27 0 241 0 0 0
0 0 0 247 220 0 255 255 0 0 0 24 0 0 8 0 0 0 0 0 0 0 0 0 0 0 0 0 15 0 0 32 1 0 59 16 0 92 60 0 58 86 0 13 53 0 0 37 0 0 23 0 0 5 0 0 0 0 0 0 0 0 0 0 0 0 0 0 0 0 0 0 0 0 0 0 8 0 0 24 0 144 0 255 28 0 247 0 0 0
0 0 0 0 0 0 247 168 0 255 255 0 0 0 21 0 0 5 0 10 0 0 25 0 0 33 0 0 52 10 0 74 37 0 103 89 0 35 69 0 7 48 0 0 30 0 0 24 0 0 10 0 0 0 0 0 0 0 0 0 0 0 0 0 0 0 0 0 0 0 0 0 0 5 0 0 21 0 197 0 255 46 0 247 0 0 0 0 0 0
0 0 0 0 0 0 0 0 0 241 101 0 255 241 13 0 0 34 0 48 27 0 65 21 0 84 48 0 104 95 0 49 81 0 15 59 0 0 49 0 0 34 0 0 18 0 0 9 0 0 0 0 0 0 0 0 0 0 0 0 0 0 0 0 0 0 0 0 0 0 23 0 0 36 0 255 15 255 61 0 239 0 0 0 0 0 0 0 0 0
0 0 0 0 0 0 0 0 0 0 0 0 255 37 2 0 49 0 0 122 103 0 72 86 0 37 70 0 13 57 0 1 46 0 0 30 0 0 21 0 0 12 0 0 0 0 0 0 0 0 0 0 0 0 0 0 0 0 0 0 0 0 0 0 0 0 0 0 0 0 31 0 2 0 0 115 4 255 0 0 0 0 0 0 0 0 0 0 0 0
0 0 0 0 0 0 0 0 0 0 0 0 232 0 13 255 0 26 0 32 0 0 8 0 0 0 44 0 0 36 0 0 20 0 0 13 0 0 9 0 0 0 0 0 0 0 0 0 0 0 0 0 0 0 0 0 0 0 0 0 0 0 0 0 0 0 0 8 0 0 47 0 178 0 255 41 15 247 0 0 0 0 0 0 0 0 0 0 0 0
0 0 0 0 0 0 0 0 0 0 0 0 0 0 0 247 0 21 255 0 128 0 24 0 0 8 0 0 0 17 0 0 3 0 0 0 0 0 0 0 0 0 0 0 0 0 0 0 0 0 0 0 0 0 0 0 0 0 0 0 0 0 0 0 8 0 0 24 0 199 0 255 52 0 247 0 0 0 0 0 0 0 0 0 0 0 0 0 0 0
0 0 0 0 0 0 0 0 0 0 0 0 0 0 0 0 0 0 255 0 255 255 0 255 0 8 0 0 0 0 0 0 0 0 0 0 0 0 0 0 0 0 0 0 0 0 0 0 0 0 0 0 0 0 0 0 0 0 0 0 7 0 0 0 46 0 222 0 255 53 22 255 0 0 0 0 0 0 0 0 0 0 0 0 0 0 0 0 0 0
0 0 0 0 0 0 0 0 0 0 0 0 0 0 0 0 0 0 255 0 255 0 32 0 0 8 0 0 0 0 0 0 0 0 0 0 0 0 0 0 0 0 0 0 0 0 0 0 0 0 0 0 0 0 0 0 0 11 0 0 20 0 0 28 61 0 87 0 0 0 37 255 0 0 0 0 0 0 0 0 0 0 0 0 0 0 0 0 0 0
0 0 0 0 0 0 0 0 0 0 0 0 0 0 0 0 0 0 255 0 255 0 24 0 0 0 0 0 0 0 0 0 0 0 0 0 0 0 0 0 0 0 0 0 0 0 0 0 0 0 0 0 0 0 10 0 0 37 0 0 57 19 0 93 119 0 61 8 0 0 76 255 0 0 0 0 0 0 0 0 0 0 0 0 0 0 0 0 0 0
0 0 0 0 0 0 0 0 0 0 0 0 0 0 0 0 0 0 255 0 255 0 24 0 0 0 0 0 0 0 0 0 0 0 0 0 0 0 0 0 0 0 0 0 0 0 0 0 13 0 0 28 0 0 43 6 0 68 33 0 94 107 0 27 80 0 27 0 0 0 126 255 0 0 0 0 0 0 0 0 0 0 0 0 0 0 0 0 0 0
0 0 0 0 0 0 0 0 0 0 0 0 0 0 0 0 0 0 255 0 255 0 24 0 0 0 0 0 0 0 0 0 0 0 0 0 0 0 0 0 0 0 0 0 0 18 0 0 29 0 0 49 15 0 79 59 0 66 98 0 17 67 0 0 41 0 24 0 0 0 246 255 0 0 0 0 0 0 0 0 0 0 0 0 0 0 0 0 0 0
0 0 0 0 0 0 0 0 0 0 0 0 0 0 0 0 0 0 255 0 255 0 24 0 0 0 0 0 0 0 0 0 0 0 0 0 0 8 0 0 16 0 13 24 0 64 24 0 87 45 0 109 105 0 37 87 0 9 57 0 0 38 0 0 19 0 24 0 0 0 255 255 0 0 0 0 0 0 0 0 0 0 0 0 0 0 0 0 0 0
0 0 0 0 0 0 0 0 0 0 0 0 0 0 0 0 0 0 255 0 255 0 24 0 8 0 0 13 0 0 14 8 0 16 16 0 13 32 0 225 0 255 129 0 255 72 0 255 13 0 255 46 0 0 16 0 0 8 0 0 0 14 0 0 0 0 24 0 0 0 255 255 0 0 0 0 0 0 0 0 0 0 0 0 0 0 0 0 0 0
0 0 0 0 0 0 0 0 0 0 0 0 0 0 0 0 0 0 170 0 255 0 24 0 32 8 0 50 16 0 58 32 0 177 0 255 88 0 255 36 0 247 0 0 0 0 0 0 0 21 247 0 66 255 0 255 255 32 0 0 16 0 0 8 0 0 24 0 0 0 255 255 0 0 0 0 0 0 0 0 0 0 0 0 0 0 0 0 0 0
0 0 0 0 0 0 0 0 0 0 0 0 0 0 0 0 43 121 60 27 255 18 83 0 109 32 0 103 0 255 55 0 255 22 0 247 0 0 0 0 0 0 0 0 0 0 0 0 0 0 0 0 0 0 0 123 247 0 255 255 0 255 255 32 0 0 36 0 0 0 255 255 0 106 117 0 0 0 0 0 0 0 0 0 0 0 0 0 0 0
0 0 0 0 0 0 0 0 0 0 0 0 0 0 0 0 43 121 42 0 0 10 27 255 14 0 255 4 0 247 0 0 0 0 0 0 0 0 0 0 0 0 0 0 0 0 0 0 0 0 0 0 0 0 0 0 0 0 0 0 0 224 247 0 255 255 0 255 255 24 0 0 0 106 117 0 0 0 0 0 0 0 0 0 0 0 0 0 0 0
0 0 0 0 0 0 0 0 0 0 0 0 0 0 0 0 0 0 0 0 0 0 0 0 0 0 0 0 0 0 0 0 0 0 0 0 0 0 0 0 0 0 0 0 0 0 0 0 0 0 0 0 0 0 0 0 0 0 0 0 0 0 0 0 0 0 0 0 0 0 0 0 0 0 0 0 0 0 0 0 0 0 0 0 0 0 0 0 0 0
