P3
5 5
255
0 0 0 30 30 30 60 60 60 150 150 150 220 220 220
30 30 30 60 60 60 150 150 150 220 220 220 255 255 255
155 155 155 240 240 0 123 83 73 3 4 5 1 189 3
30 30 30 60 60 60 150 150 150 220 220 220 255 255 255
0 0 0 30 30 30 60 60 60 150 150 150 220 220 220
